<?xml version="1.0" standalone="no"?><svg xmlns:xlink="http://www.w3.org/1999/xlink" xmlns="http://www.w3.org/2000/svg" viewBox="0 0 1000 588.2352941176471" preserveAspectRatio="xMaxYMax slice"><g transform="scale(0.8476012883539583)"><rect x="0" y="0" width="1179.8000000000002" height="694" fill="#ffffff"/><rect x="902.2" y="69.4" width="69.4" height="69.4" fill="#ffffff"/><rect x="902.2" y="104.1" width="34.7" height="34.7" fill="#42679f"/><path d="M 902.2 104.1 A 34.7 34.7 0 0 0 936.9000000000001 138.8 L 936.9000000000001 130.125 A 26.025000000000002 26.025000000000002 0 0 1 910.875 104.1" fill="#385e9a"/><rect x="971.6000000000001" y="69.4" width="69.4" height="69.4" fill="#ffffff"/><rect x="208.20000000000002" y="138.8" width="69.4" height="69.4" fill="#ffffff"/><rect x="208.2" y="138.8" width="34.7" height="34.7" fill="#869dc1"/><path d="M 208.2 138.8 A 34.7 34.7 0 0 0 242.89999999999998 173.5 L 242.89999999999998 138.8" fill="#e4edfa"/><rect x="208.2" y="173.5" width="34.7" height="34.7" fill="#e8f0fb"/><path d="M 208.2 208.2 A 34.7 34.7 0 0 1  242.89999999999998 173.5 L 242.89999999999998 208.2" fill="#d0e0f7"/><rect x="832.8000000000001" y="138.8" width="69.4" height="69.4" fill="#ffffff"/><rect x="1110.4" y="138.8" width="69.4" height="69.4" fill="#ffffff"/><rect x="1110.4" y="138.8" width="34.7" height="34.7" fill="#f6f9fd"/><polygon points="1145.1000000000001,138.8 1145.1000000000001,173.5 1110.4,173.5" fill="#5c92e3"/><rect x="1145.1" y="138.8" width="34.7" height="34.7" fill="#6d9ee6"/><polygon points="1145.1,138.8 1179.8,173.5 1145.1,173.5" fill="#c6d9f5"/><rect x="0" y="208.20000000000002" width="69.4" height="69.4" fill="#ffffff"/><rect x="0" y="242.9" width="34.7" height="34.7" fill="#abc7f1"/><path d="M 0 242.9 A 34.7 34.7 0 0 0 34.7 277.6 L 34.7 242.9" fill="#bfd4f4"/><rect x="34.7" y="242.9" width="34.7" height="34.7" fill="#fdfeff"/><path d="M 34.7 277.6 A 34.7 34.7 0 0 0 69.4 242.9 L 34.7 242.9" fill="#d0d9e7"/><rect x="138.8" y="208.20000000000002" width="69.4" height="69.4" fill="#ffffff"/><rect x="173.5" y="208.2" width="34.7" height="34.7" fill="#d9e6f8"/><polygon points="173.5,208.2 208.2,242.89999999999998 173.5,242.89999999999998" fill="#568ee2"/><rect x="208.20000000000002" y="208.20000000000002" width="69.4" height="69.4" fill="#ffffff"/><rect x="277.6" y="208.20000000000002" width="69.4" height="69.4" fill="#ffffff"/><rect x="312.3" y="208.2" width="34.7" height="34.7" fill="#becade"/><path d="M 312.3 242.89999999999998 A 34.7 34.7 0 0 0 347 208.2 L 312.3 208.2" fill="#8cb3eb"/><rect x="312.3" y="242.9" width="34.7" height="34.7" fill="#b7cff3"/><path d="M 312.3 242.9 A 34.7 34.7 0 0 1 347 277.6 L 312.3 277.6" fill="#82abe9"/><rect x="624.6" y="208.20000000000002" width="69.4" height="69.4" fill="#ffffff"/><rect x="659.3" y="208.2" width="34.7" height="34.7" fill="#dbe7f9"/><polygon points="659.3,208.2 694,242.89999999999998 659.3,242.89999999999998" fill="#b2ccf2"/><rect x="1110.4" y="208.20000000000002" width="69.4" height="69.4" fill="#ffffff"/><rect x="1145.1" y="208.2" width="34.7" height="34.7" fill="#f1f6fc"/><path d="M 1145.1 208.2 A 34.7 34.7 0 0 0 1179.8 242.89999999999998 L 1179.8 208.2" fill="#84adea"/><rect x="1110.4" y="242.9" width="34.7" height="34.7" fill="#dfe9f9"/><path d="M 1110.4 242.9 A 34.7 34.7 0 0 1 1145.1000000000001 277.6 L 1110.4 277.6" fill="#cadcf6"/><rect x="0" y="277.6" width="69.4" height="69.4" fill="#ffffff"/><rect x="34.7" y="277.6" width="34.7" height="34.7" fill="#214c8e"/><path d="M 34.7 277.6 A 34.7 34.7 0 0 0 69.4 312.3 L 69.4 277.6" fill="#c0d5f4"/><rect x="0" y="312.3" width="34.7" height="34.7" fill="#7f98be"/><path d="M 0 312.3 A 34.7 34.7 0 0 1 34.7 347 L 0 347" fill="#4684df"/><rect x="138.8" y="277.6" width="69.4" height="69.4" fill="#ffffff"/><rect x="138.8" y="277.6" width="34.7" height="34.7" fill="#ecf0f5"/><polygon points="173.5,277.6 173.5,312.3 138.8,312.3" fill="#e0e6ef"/><rect x="173.5" y="277.6" width="34.7" height="34.7" fill="#5072a6"/><polygon points="173.5,277.6 208.2,277.6 173.5,312.3" fill="#8da3c5"/><rect x="277.6" y="277.6" width="69.4" height="69.4" fill="#ffffff"/><rect x="277.6" y="312.3" width="34.7" height="34.7" fill="#d6e3f8"/><path d="M 277.6 312.3 A 34.7 34.7 0 0 0 312.3 347 L 312.3 338.325 A 26.025000000000002 26.025000000000002 0 0 1 286.27500000000003 312.3" fill="#bbd2f3"/><rect x="312.3" y="312.3" width="34.7" height="34.7" fill="#2c5594"/><path d="M 312.3 347 A 34.7 34.7 0 0 0 347 312.3 L 338.325 312.3 A 26.025000000000002 26.025000000000002 0 0 1 312.3 338.325" fill="#ccddf6"/><rect x="555.2" y="277.6" width="69.4" height="69.4" fill="#ffffff"/><rect x="555.2" y="312.3" width="34.7" height="34.7" fill="#e6effb"/><circle cx="572.5500000000001" cy="329.65000000000003" r="17.35" fill="#edf3fc"/><rect x="624.6" y="277.6" width="69.4" height="69.4" fill="#ffffff"/><rect x="659.3" y="277.6" width="34.7" height="34.7" fill="#a2c1ef"/><rect x="659.3" y="277.6" width="34.7" height="34.7" fill="#f1f6fd"/><rect x="624.6" y="312.3" width="34.7" height="34.7" fill="#ffffff"/><circle cx="641.95" cy="329.65000000000003" r="17.35" fill="#e8f0fb"/><rect x="659.3" y="312.3" width="34.7" height="34.7" fill="#cfdff7"/><rect x="659.3" y="312.3" width="34.7" height="34.7" fill="#b5cef2"/><rect x="763.4000000000001" y="277.6" width="69.4" height="69.4" fill="#ffffff"/><rect x="798.1" y="277.6" width="34.7" height="34.7" fill="#d4e2f8"/><path d="M 798.1 312.3 A 34.7 34.7 0 0 1  832.8000000000001 277.6 L 832.8000000000001 312.3" fill="#eef4fc"/><rect x="832.8000000000001" y="277.6" width="69.4" height="69.4" fill="#ffffff"/><rect x="832.8" y="277.6" width="34.7" height="34.7" fill="#fbfdfe"/><circle cx="850.15" cy="294.95000000000005" r="17.35" fill="#718db7"/><rect x="867.5" y="312.3" width="34.7" height="34.7" fill="#e7effb"/><rect x="867.5" y="312.3" width="34.7" height="34.7" fill="#eef4fc"/><rect x="902.2" y="277.6" width="69.4" height="69.4" fill="#ffffff"/><rect x="936.9" y="312.3" width="34.7" height="34.7" fill="#e3ecfa"/><path d="M 936.9 347 A 34.7 34.7 0 0 0 971.6 312.3 L 962.925 312.3 A 26.025000000000002 26.025000000000002 0 0 1 936.9 338.325" fill="#5f7eae"/><rect x="1041" y="277.6" width="69.4" height="69.4" fill="#ffffff"/><rect x="1075.7" y="277.6" width="34.7" height="34.7" fill="#e9f0fb"/><rect x="1075.7" y="277.6" width="34.7" height="34.7" fill="#e2ecfa"/><rect x="1075.7" y="312.3" width="34.7" height="34.7" fill="#b8cff3"/><rect x="1075.7" y="312.3" width="34.7" height="34.7" fill="#f7f9fe"/><rect x="1110.4" y="277.6" width="69.4" height="69.4" fill="#ffffff"/><rect x="1110.4" y="277.6" width="34.7" height="34.7" fill="#cadbf6"/><path d="M 1110.4 277.6 A 34.7 34.7 0 0 1 1145.1000000000001 312.3 L 1110.4 312.3" fill="#bcd2f4"/><rect x="1145.1" y="277.6" width="34.7" height="34.7" fill="#9fbfef"/><path d="M 1145.1 312.3 A 34.7 34.7 0 0 1  1179.8 277.6 L 1179.8 312.3" fill="#7aa6e8"/><rect x="0" y="347" width="69.4" height="69.4" fill="#ffffff"/><rect x="0" y="347" width="34.7" height="34.7" fill="#83acea"/><polygon points="34.7,347 34.7,381.7 0,381.7" fill="#bcd2f3"/><rect x="138.8" y="347" width="69.4" height="69.4" fill="#ffffff"/><rect x="138.8" y="347" width="34.7" height="34.7" fill="#dde9f9"/><polygon points="173.5,347 173.5,381.7 138.8,381.7" fill="#b1cbf2"/><rect x="173.5" y="347" width="34.7" height="34.7" fill="#e8f0fb"/><polygon points="173.5,347 208.2,381.7 173.5,381.7" fill="#94a9c9"/><rect x="173.5" y="381.7" width="34.7" height="34.7" fill="#bbd2f3"/><polygon points="173.5,381.7 208.2,381.7 208.2,416.4" fill="#a9c6f0"/><rect x="208.20000000000002" y="347" width="69.4" height="69.4" fill="#ffffff"/><rect x="208.2" y="347" width="34.7" height="34.7" fill="#fcfdfe"/><path d="M 208.2 347 A 34.7 34.7 0 0 1 242.89999999999998 381.7 L 208.2 381.7" fill="#a9c6f0"/><rect x="242.9" y="347" width="34.7" height="34.7" fill="#9aaecc"/><path d="M 242.9 381.7 A 34.7 34.7 0 0 1  277.6 347 L 277.6 381.7" fill="#c3d7f5"/><rect x="208.2" y="381.7" width="34.7" height="34.7" fill="#e7effb"/><path d="M 208.2 416.4 A 34.7 34.7 0 0 0 242.89999999999998 381.7 L 208.2 381.7" fill="#fdfeff"/><rect x="277.6" y="347" width="69.4" height="69.4" fill="#ffffff"/><rect x="312.3" y="347" width="34.7" height="34.7" fill="#d7deea"/><path d="M 312.3 347 A 34.7 34.7 0 0 1 347 381.7 L 312.3 381.7" fill="#c8daf6"/><rect x="347" y="347" width="69.4" height="69.4" fill="#ffffff"/><rect x="347" y="347" width="34.7" height="34.7" fill="#aec9f1"/><path d="M 347 381.7 A 34.7 34.7 0 0 1 381.7 347 L 381.7 355.675 A 26.025000000000002 26.025000000000002 0 0 0 355.675 381.7" fill="#b0cbf1"/><rect x="381.7" y="347" width="34.7" height="34.7" fill="#f8fafe"/><path d="M 381.7 347 A 34.7 34.7 0 0 1 416.4 381.7 L 407.72499999999997 381.7 A 26.025000000000002 26.025000000000002 0 0 0 381.7 355.675" fill="#e1ebfa"/><rect x="347" y="381.7" width="34.7" height="34.7" fill="#f6f9fd"/><path d="M 347 381.7 A 34.7 34.7 0 0 0 381.7 416.4 L 381.7 407.72499999999997 A 26.025000000000002 26.025000000000002 0 0 1 355.675 381.7" fill="#f2f7fd"/><rect x="381.7" y="381.7" width="34.7" height="34.7" fill="#e7effb"/><path d="M 381.7 416.4 A 34.7 34.7 0 0 0 416.4 381.7 L 407.72499999999997 381.7 A 26.025000000000002 26.025000000000002 0 0 1 381.7 407.72499999999997" fill="#8eb3ec"/><rect x="416.40000000000003" y="347" width="69.4" height="69.4" fill="#ffffff"/><rect x="451.1" y="347" width="34.7" height="34.7" fill="#d0e0f7"/><polygon points="451.1,347 485.8,381.7 451.1,381.7" fill="#4e70a5"/><rect x="555.2" y="347" width="69.4" height="69.4" fill="#ffffff"/><rect x="555.2" y="347" width="34.7" height="34.7" fill="#77a4e8"/><path d="M 555.2 381.7 A 34.7 34.7 0 0 1  589.9000000000001 347 L 589.9000000000001 381.7" fill="#d7e4f8"/><rect x="589.9" y="381.7" width="34.7" height="34.7" fill="#dfeafa"/><path d="M 589.9 416.4 A 34.7 34.7 0 0 0 624.6 381.7 L 589.9 381.7" fill="#e6eefa"/><rect x="624.6" y="347" width="69.4" height="69.4" fill="#ffffff"/><rect x="624.6" y="381.7" width="34.7" height="34.7" fill="#e3edfa"/><path d="M 624.6 416.4 A 34.7 34.7 0 0 0 659.3000000000001 381.7 L 624.6 381.7" fill="#ffffff"/><rect x="694" y="347" width="69.4" height="69.4" fill="#ffffff"/><rect x="728.7" y="347" width="34.7" height="34.7" fill="#9ebeee"/><polygon points="728.7,347 763.4000000000001,381.7 728.7,381.7" fill="#eaf1fb"/><rect x="763.4000000000001" y="347" width="69.4" height="69.4" fill="#ffffff"/><rect x="763.4" y="347" width="34.7" height="34.7" fill="#8cb2eb"/><path d="M 763.4 347 A 34.7 34.7 0 0 0 798.1 381.7 L 798.1 347" fill="#8db3eb"/><rect x="798.1" y="381.7" width="34.7" height="34.7" fill="#4885e0"/><path d="M 798.1 381.7 A 34.7 34.7 0 0 1 832.8000000000001 416.4 L 798.1 416.4" fill="#edf0f6"/><rect x="832.8000000000001" y="347" width="69.4" height="69.4" fill="#ffffff"/><rect x="867.5" y="381.7" width="34.7" height="34.7" fill="#e5edfa"/><polygon points="867.5,381.7 902.2,416.4 867.5,416.4" fill="#d0e0f7"/><rect x="902.2" y="347" width="69.4" height="69.4" fill="#ffffff"/><rect x="902.2" y="347" width="34.7" height="34.7" fill="#d7e4f8"/><polygon points="936.9000000000001,347 936.9000000000001,381.7 902.2,381.7" fill="#86afea"/><rect x="936.9" y="347" width="34.7" height="34.7" fill="#eff4fc"/><polygon points="936.9,347 971.6,347 936.9,381.7" fill="#d8e5f8"/><rect x="902.2" y="381.7" width="34.7" height="34.7" fill="#e5eefa"/><polygon points="902.2,381.7 936.9000000000001,381.7 936.9000000000001,416.4" fill="#eef4fc"/><rect x="936.9" y="381.7" width="34.7" height="34.7" fill="#77a4e8"/><polygon points="936.9,381.7 971.6,416.4 936.9,416.4" fill="#d0e0f7"/><rect x="971.6000000000001" y="347" width="69.4" height="69.4" fill="#ffffff"/><rect x="971.6" y="347" width="34.7" height="34.7" fill="#224d8e"/><path d="M 971.6 347 A 34.7 34.7 0 0 1 1006.3000000000001 381.7 L 971.6 381.7" fill="#b9d0f3"/><rect x="1006.3" y="347" width="34.7" height="34.7" fill="#d3dce9"/><path d="M 1006.3 381.7 A 34.7 34.7 0 0 1  1041 347 L 1041 381.7" fill="#e8f0fb"/><rect x="971.6" y="381.7" width="34.7" height="34.7" fill="#568ee2"/><path d="M 971.6 416.4 A 34.7 34.7 0 0 0 1006.3000000000001 381.7 L 971.6 381.7" fill="#abbbd4"/><rect x="1041" y="347" width="69.4" height="69.4" fill="#ffffff"/><rect x="1075.7" y="347" width="34.7" height="34.7" fill="#e6eefb"/><polygon points="1075.7,347 1110.4,381.7 1075.7,381.7" fill="#c0d5f4"/><rect x="1041" y="381.7" width="34.7" height="34.7" fill="#bcd2f4"/><polygon points="1041,381.7 1075.7,381.7 1075.7,416.4" fill="#8fb4ec"/><rect x="1075.7" y="381.7" width="34.7" height="34.7" fill="#c1d6f4"/><polygon points="1075.7,381.7 1110.4,381.7 1075.7,416.4" fill="#e7effb"/><rect x="0" y="416.40000000000003" width="69.4" height="69.4" fill="#ffffff"/><rect x="0" y="416.4" width="34.7" height="34.7" fill="#5e7dad"/><path d="M 0 451.09999999999997 A 34.7 34.7 0 0 0 34.7 416.4 L 0 416.4" fill="#859dc1"/><rect x="0" y="451.1" width="34.7" height="34.7" fill="#8cb2eb"/><path d="M 0 451.1 A 34.7 34.7 0 0 1 34.7 485.8 L 0 485.8" fill="#e5edfa"/><rect x="34.7" y="451.1" width="34.7" height="34.7" fill="#7c95bc"/><path d="M 34.7 485.8 A 34.7 34.7 0 0 1  69.4 451.1 L 69.4 485.8" fill="#a8b9d3"/><rect x="69.4" y="416.40000000000003" width="69.4" height="69.4" fill="#ffffff"/><rect x="104.1" y="416.4" width="34.7" height="34.7" fill="#a8c5f0"/><path d="M 104.1 416.4 A 34.7 34.7 0 0 1 138.8 451.09999999999997 L 104.1 451.09999999999997" fill="#c3d7f5"/><rect x="69.4" y="451.1" width="34.7" height="34.7" fill="#bdd3f4"/><path d="M 69.4 451.1 A 34.7 34.7 0 0 0 104.10000000000001 485.8 L 104.10000000000001 451.1" fill="#e9f1fb"/><rect x="104.1" y="451.1" width="34.7" height="34.7" fill="#d6e4f8"/><path d="M 104.1 485.8 A 34.7 34.7 0 0 0 138.8 451.1 L 104.1 451.1" fill="#dbe7f9"/><rect x="138.8" y="416.40000000000003" width="69.4" height="69.4" fill="#ffffff"/><rect x="138.8" y="416.4" width="34.7" height="34.7" fill="#5777a9"/><polygon points="173.5,416.4 173.5,451.09999999999997 138.8,451.09999999999997" fill="#d3e2f7"/><rect x="173.5" y="416.4" width="34.7" height="34.7" fill="#4784df"/><polygon points="173.5,416.4 208.2,416.4 173.5,451.09999999999997" fill="#d0e0f7"/><rect x="138.8" y="451.1" width="34.7" height="34.7" fill="#d9e5f8"/><polygon points="138.8,451.1 173.5,451.1 173.5,485.8" fill="#e5eefa"/><rect x="208.20000000000002" y="416.40000000000003" width="69.4" height="69.4" fill="#ffffff"/><rect x="208.2" y="416.4" width="34.7" height="34.7" fill="#f4f8fd"/><path d="M 208.2 451.09999999999997 A 34.7 34.7 0 0 1  242.89999999999998 416.4 L 242.89999999999998 451.09999999999997" fill="#ecf2fc"/><rect x="242.9" y="416.4" width="34.7" height="34.7" fill="#607fae"/><path d="M 242.9 416.4 A 34.7 34.7 0 0 1 277.6 451.09999999999997 L 242.9 451.09999999999997" fill="#f2f6fd"/><rect x="208.2" y="451.1" width="34.7" height="34.7" fill="#f5f8fd"/><path d="M 208.2 451.1 A 34.7 34.7 0 0 0 242.89999999999998 485.8 L 242.89999999999998 451.1" fill="#e1ebfa"/><rect x="242.9" y="451.1" width="34.7" height="34.7" fill="#285292"/><path d="M 242.9 485.8 A 34.7 34.7 0 0 0 277.6 451.1 L 242.9 451.1" fill="#f8fafe"/><rect x="277.6" y="416.40000000000003" width="69.4" height="69.4" fill="#ffffff"/><rect x="277.6" y="416.4" width="34.7" height="34.7" fill="#528be1"/><polygon points="312.3,416.4 312.3,451.09999999999997 277.6,451.09999999999997" fill="#f6f9fd"/><rect x="485.80000000000007" y="416.40000000000003" width="69.4" height="69.4" fill="#ffffff"/><rect x="485.8" y="416.4" width="34.7" height="34.7" fill="#528ce1"/><path d="M 485.8 451.09999999999997 A 34.7 34.7 0 0 1 520.5 416.4 L 520.5 425.075 A 26.025000000000002 26.025000000000002 0 0 0 494.475 451.09999999999997" fill="#b7cff3"/><rect x="485.8" y="451.1" width="34.7" height="34.7" fill="#80aae9"/><path d="M 485.8 451.1 A 34.7 34.7 0 0 0 520.5 485.8 L 520.5 477.125 A 26.025000000000002 26.025000000000002 0 0 1 494.475 451.1" fill="#f2f6fd"/><rect x="624.6" y="416.40000000000003" width="69.4" height="69.4" fill="#ffffff"/><rect x="624.6" y="416.4" width="34.7" height="34.7" fill="#4e71a5"/><path d="M 624.6 416.4 A 34.7 34.7 0 0 1 659.3000000000001 451.09999999999997 L 624.6 451.09999999999997" fill="#cfdff7"/><rect x="659.3" y="416.4" width="34.7" height="34.7" fill="#6598e5"/><path d="M 659.3 451.09999999999997 A 34.7 34.7 0 0 1  694 416.4 L 694 451.09999999999997" fill="#fefeff"/><rect x="624.6" y="451.1" width="34.7" height="34.7" fill="#7ea9e9"/><path d="M 624.6 485.8 A 34.7 34.7 0 0 0 659.3000000000001 451.1 L 624.6 451.1" fill="#92a7c7"/><rect x="659.3" y="451.1" width="34.7" height="34.7" fill="#d1e0f7"/><path d="M 659.3 451.1 A 34.7 34.7 0 0 0 694 485.8 L 694 451.1" fill="#c4d8f5"/><rect x="694" y="416.40000000000003" width="69.4" height="69.4" fill="#ffffff"/><rect x="694" y="416.4" width="34.7" height="34.7" fill="#c3d7f5"/><path d="M 694 451.09999999999997 A 34.7 34.7 0 0 1 728.7 416.4 L 728.7 425.075 A 26.025000000000002 26.025000000000002 0 0 0 702.675 451.09999999999997" fill="#e8f0fb"/><rect x="728.7" y="416.4" width="34.7" height="34.7" fill="#7ca7e9"/><path d="M 728.7 416.4 A 34.7 34.7 0 0 1 763.4000000000001 451.09999999999997 L 754.725 451.09999999999997 A 26.025000000000002 26.025000000000002 0 0 0 728.7 425.075" fill="#d7e5f8"/><rect x="763.4000000000001" y="416.40000000000003" width="69.4" height="69.4" fill="#ffffff"/><rect x="763.4" y="416.4" width="34.7" height="34.7" fill="#e4e9f1"/><path d="M 763.4 451.09999999999997 A 34.7 34.7 0 0 1 798.1 416.4 L 798.1 425.075 A 26.025000000000002 26.025000000000002 0 0 0 772.0749999999999 451.09999999999997" fill="#ccddf6"/><rect x="798.1" y="416.4" width="34.7" height="34.7" fill="#dce8f9"/><path d="M 798.1 416.4 A 34.7 34.7 0 0 1 832.8000000000001 451.09999999999997 L 824.125 451.09999999999997 A 26.025000000000002 26.025000000000002 0 0 0 798.1 425.075" fill="#d6e4f8"/><rect x="763.4" y="451.1" width="34.7" height="34.7" fill="#6d8ab5"/><path d="M 763.4 451.1 A 34.7 34.7 0 0 0 798.1 485.8 L 798.1 477.125 A 26.025000000000002 26.025000000000002 0 0 1 772.0749999999999 451.1" fill="#c7daf5"/><rect x="798.1" y="451.1" width="34.7" height="34.7" fill="#eef4fc"/><path d="M 798.1 485.8 A 34.7 34.7 0 0 0 832.8000000000001 451.1 L 824.125 451.1 A 26.025000000000002 26.025000000000002 0 0 1 798.1 477.125" fill="#f3f7fd"/><rect x="832.8000000000001" y="416.40000000000003" width="69.4" height="69.4" fill="#ffffff"/><rect x="867.5" y="416.4" width="34.7" height="34.7" fill="#4b6ea3"/><polygon points="867.5,416.4 902.2,451.09999999999997 867.5,451.09999999999997" fill="#dee9f9"/><rect x="832.8" y="451.1" width="34.7" height="34.7" fill="#e9f0fb"/><polygon points="832.8,451.1 867.5,451.1 832.8,485.8" fill="#d5e3f8"/><rect x="867.5" y="451.1" width="34.7" height="34.7" fill="#b4cdf2"/><polygon points="867.5,451.1 902.2,451.1 902.2,485.8" fill="#ffffff"/><rect x="902.2" y="416.40000000000003" width="69.4" height="69.4" fill="#ffffff"/><rect x="902.2" y="451.1" width="34.7" height="34.7" fill="#e2ecfa"/><path d="M 902.2 485.8 A 34.7 34.7 0 0 0 936.9000000000001 451.1 L 902.2 451.1" fill="#6a9ce5"/><rect x="936.9" y="451.1" width="34.7" height="34.7" fill="#4c88e0"/><path d="M 936.9 451.1 A 34.7 34.7 0 0 0 971.6 485.8 L 971.6 451.1" fill="#e0ebfa"/><rect x="971.6000000000001" y="416.40000000000003" width="69.4" height="69.4" fill="#ffffff"/><rect x="971.6" y="416.4" width="34.7" height="34.7" fill="#97baed"/><polygon points="1006.3000000000001,416.4 1006.3000000000001,451.09999999999997 971.6,451.09999999999997" fill="#e1ebfa"/><rect x="1006.3" y="416.4" width="34.7" height="34.7" fill="#dae6f8"/><polygon points="1006.3,416.4 1041,416.4 1006.3,451.09999999999997" fill="#feffff"/><rect x="971.6" y="451.1" width="34.7" height="34.7" fill="#b0caf1"/><polygon points="971.6,451.1 1006.3000000000001,451.1 1006.3000000000001,485.8" fill="#6684b1"/><rect x="1006.3" y="451.1" width="34.7" height="34.7" fill="#ffffff"/><polygon points="1006.3,451.1 1041,485.8 1006.3,485.8" fill="#738eb8"/><rect x="1041" y="416.40000000000003" width="69.4" height="69.4" fill="#ffffff"/><rect x="1041" y="416.4" width="34.7" height="34.7" fill="#a0bfef"/><path d="M 1041 451.09999999999997 A 34.7 34.7 0 0 1  1075.7 416.4 L 1075.7 451.09999999999997" fill="#8cb2eb"/><rect x="1075.7" y="416.4" width="34.7" height="34.7" fill="#d4e2f8"/><path d="M 1075.7 416.4 A 34.7 34.7 0 0 1 1110.4 451.09999999999997 L 1075.7 451.09999999999997" fill="#a5b6d1"/><rect x="1041" y="451.1" width="34.7" height="34.7" fill="#f9fbfe"/><path d="M 1041 451.1 A 34.7 34.7 0 0 0 1075.7 485.8 L 1075.7 451.1" fill="#e1ebfa"/><rect x="1075.7" y="451.1" width="34.7" height="34.7" fill="#e4edfa"/><path d="M 1075.7 485.8 A 34.7 34.7 0 0 0 1110.4 451.1 L 1075.7 451.1" fill="#cadcf6"/><rect x="1110.4" y="416.40000000000003" width="69.4" height="69.4" fill="#ffffff"/><rect x="1110.4" y="416.4" width="34.7" height="34.7" fill="#b4cdf2"/><circle cx="1127.75" cy="433.75" r="17.35" fill="#e6ebf3"/><rect x="1145.1" y="416.4" width="34.7" height="34.7" fill="#bad1f3"/><rect x="1145.1" y="416.4" width="34.7" height="34.7" fill="#e1ebfa"/><rect x="1110.4" y="451.1" width="34.7" height="34.7" fill="#b1cbf2"/><circle cx="1127.75" cy="468.45000000000005" r="17.35" fill="#edf3fc"/><rect x="1145.1" y="451.1" width="34.7" height="34.7" fill="#b7cff3"/><rect x="1145.1" y="451.1" width="34.7" height="34.7" fill="#edf3fc"/><rect x="0" y="485.80000000000007" width="69.4" height="69.4" fill="#ffffff"/><rect x="0" y="485.8" width="34.7" height="34.7" fill="#fefeff"/><path d="M 0 520.5 A 34.7 34.7 0 0 1 34.7 485.8 L 34.7 494.475 A 26.025000000000002 26.025000000000002 0 0 0 8.675 520.5" fill="#96aac9"/><rect x="0" y="520.5" width="34.7" height="34.7" fill="#4c88e0"/><path d="M 0 520.5 A 34.7 34.7 0 0 0 34.7 555.2 L 34.7 546.525 A 26.025000000000002 26.025000000000002 0 0 1 8.675 520.5" fill="#fbfcfd"/><rect x="34.7" y="520.5" width="34.7" height="34.7" fill="#b8cff3"/><path d="M 34.7 555.2 A 34.7 34.7 0 0 0 69.4 520.5 L 60.72500000000001 520.5 A 26.025000000000002 26.025000000000002 0 0 1 34.7 546.525" fill="#d3e2f8"/><rect x="69.4" y="485.80000000000007" width="69.4" height="69.4" fill="#ffffff"/><rect x="69.4" y="485.8" width="34.7" height="34.7" fill="#96b9ed"/><path d="M 69.4 520.5 A 34.7 34.7 0 0 1  104.10000000000001 485.8 L 104.10000000000001 520.5" fill="#548de2"/><rect x="104.1" y="485.8" width="34.7" height="34.7" fill="#96b9ed"/><path d="M 104.1 485.8 A 34.7 34.7 0 0 1 138.8 520.5 L 104.1 520.5" fill="#e1ebfa"/><rect x="69.4" y="520.5" width="34.7" height="34.7" fill="#e7ebf3"/><path d="M 69.4 520.5 A 34.7 34.7 0 0 0 104.10000000000001 555.2 L 104.10000000000001 520.5" fill="#f1f6fd"/><rect x="208.20000000000002" y="485.80000000000007" width="69.4" height="69.4" fill="#ffffff"/><rect x="208.2" y="485.8" width="34.7" height="34.7" fill="#cedff7"/><circle cx="225.54999999999998" cy="503.15000000000003" r="17.35" fill="#dce8f9"/><rect x="242.9" y="485.8" width="34.7" height="34.7" fill="#97acca"/><rect x="242.9" y="485.8" width="34.7" height="34.7" fill="#afcaf1"/><rect x="347" y="485.80000000000007" width="69.4" height="69.4" fill="#ffffff"/><rect x="347" y="485.8" width="34.7" height="34.7" fill="#b1cbf2"/><path d="M 347 485.8 A 34.7 34.7 0 0 1 381.7 520.5 L 347 520.5" fill="#fcfdfe"/><rect x="381.7" y="485.8" width="34.7" height="34.7" fill="#4381df"/><path d="M 381.7 520.5 A 34.7 34.7 0 0 1  416.4 485.8 L 416.4 520.5" fill="#fefeff"/><rect x="381.7" y="520.5" width="34.7" height="34.7" fill="#e1ebfa"/><path d="M 381.7 520.5 A 34.7 34.7 0 0 0 416.4 555.2 L 416.4 520.5" fill="#dbe7f9"/><rect x="485.80000000000007" y="485.80000000000007" width="69.4" height="69.4" fill="#ffffff"/><rect x="485.8" y="485.8" width="34.7" height="34.7" fill="#eaf1fb"/><polygon points="520.5,485.8 520.5,520.5 485.8,520.5" fill="#b3c2d9"/><rect x="520.5" y="520.5" width="34.7" height="34.7" fill="#f4f7fd"/><polygon points="520.5,520.5 555.2,520.5 520.5,555.2" fill="#708cb6"/><rect x="555.2" y="485.80000000000007" width="69.4" height="69.4" fill="#ffffff"/><rect x="555.2" y="485.8" width="34.7" height="34.7" fill="#c0d5f4"/><polygon points="589.9000000000001,485.8 589.9000000000001,520.5 555.2,520.5" fill="#c9dbf6"/><rect x="589.9" y="485.8" width="34.7" height="34.7" fill="#7c96bd"/><polygon points="589.9,485.8 624.6,520.5 589.9,520.5" fill="#edf3fc"/><rect x="589.9" y="520.5" width="34.7" height="34.7" fill="#aac6f1"/><polygon points="589.9,520.5 624.6,520.5 589.9,555.2" fill="#e4edfa"/><rect x="624.6" y="485.80000000000007" width="69.4" height="69.4" fill="#ffffff"/><rect x="624.6" y="485.8" width="34.7" height="34.7" fill="#9fb2ce"/><path d="M 624.6 520.5 A 34.7 34.7 0 0 0 659.3000000000001 485.8 L 624.6 485.8" fill="#b6cff3"/><rect x="659.3" y="485.8" width="34.7" height="34.7" fill="#d2e1f7"/><path d="M 659.3 485.8 A 34.7 34.7 0 0 0 694 520.5 L 694 485.8" fill="#2f5895"/><rect x="624.6" y="520.5" width="34.7" height="34.7" fill="#6d9ee6"/><path d="M 624.6 520.5 A 34.7 34.7 0 0 1 659.3000000000001 555.2 L 624.6 555.2" fill="#f6f9fd"/><rect x="659.3" y="520.5" width="34.7" height="34.7" fill="#d9e6f8"/><path d="M 659.3 555.2 A 34.7 34.7 0 0 1  694 520.5 L 694 555.2" fill="#e5eefb"/><rect x="694" y="485.80000000000007" width="69.4" height="69.4" fill="#ffffff"/><rect x="694" y="485.8" width="34.7" height="34.7" fill="#f4f8fd"/><polygon points="728.7,485.8 728.7,520.5 694,520.5" fill="#ecf2fc"/><rect x="728.7" y="485.8" width="34.7" height="34.7" fill="#f8fafe"/><polygon points="728.7,485.8 763.4000000000001,485.8 728.7,520.5" fill="#a8c5f0"/><rect x="694" y="520.5" width="34.7" height="34.7" fill="#7e97be"/><polygon points="694,520.5 728.7,520.5 728.7,555.2" fill="#c0d5f4"/><rect x="728.7" y="520.5" width="34.7" height="34.7" fill="#f2f6fd"/><polygon points="728.7,520.5 763.4000000000001,555.2 728.7,555.2" fill="#97abca"/><rect x="763.4000000000001" y="485.80000000000007" width="69.4" height="69.4" fill="#ffffff"/><rect x="798.1" y="485.8" width="34.7" height="34.7" fill="#a3b5d0"/><polygon points="798.1,485.8 832.8000000000001,520.5 798.1,520.5" fill="#adc8f1"/><rect x="763.4" y="520.5" width="34.7" height="34.7" fill="#f0f5fc"/><polygon points="763.4,520.5 798.1,520.5 798.1,555.2" fill="#dfeaf9"/><rect x="798.1" y="520.5" width="34.7" height="34.7" fill="#e7effb"/><polygon points="798.1,520.5 832.8000000000001,520.5 798.1,555.2" fill="#365d99"/><rect x="902.2" y="485.80000000000007" width="69.4" height="69.4" fill="#ffffff"/><rect x="936.9" y="485.8" width="34.7" height="34.7" fill="#f5f8fd"/><polygon points="936.9,485.8 971.6,485.8 936.9,520.5" fill="#e5eefb"/><rect x="902.2" y="520.5" width="34.7" height="34.7" fill="#c7daf5"/><polygon points="902.2,520.5 936.9000000000001,520.5 936.9000000000001,555.2" fill="#eef4fc"/><rect x="936.9" y="520.5" width="34.7" height="34.7" fill="#e6eefb"/><polygon points="936.9,520.5 971.6,555.2 936.9,555.2" fill="#9cafcd"/><rect x="971.6000000000001" y="485.80000000000007" width="69.4" height="69.4" fill="#ffffff"/><rect x="971.6" y="485.8" width="34.7" height="34.7" fill="#d8e5f8"/><path d="M 971.6 485.8 A 34.7 34.7 0 0 1 1006.3000000000001 520.5 L 971.6 520.5" fill="#e9f0fb"/><rect x="1006.3" y="485.8" width="34.7" height="34.7" fill="#f5f8fd"/><path d="M 1006.3 520.5 A 34.7 34.7 0 0 1  1041 485.8 L 1041 520.5" fill="#2c5594"/><rect x="971.6" y="520.5" width="34.7" height="34.7" fill="#89b0eb"/><path d="M 971.6 555.2 A 34.7 34.7 0 0 0 1006.3000000000001 520.5 L 971.6 520.5" fill="#365d99"/><rect x="1006.3" y="520.5" width="34.7" height="34.7" fill="#d7e4f8"/><path d="M 1006.3 520.5 A 34.7 34.7 0 0 0 1041 555.2 L 1041 520.5" fill="#dee4ee"/><rect x="1041" y="485.80000000000007" width="69.4" height="69.4" fill="#ffffff"/><rect x="1041" y="485.8" width="34.7" height="34.7" fill="#c2d6f5"/><path d="M 1041 520.5 A 34.7 34.7 0 0 1 1075.7 485.8 L 1075.7 494.475 A 26.025000000000002 26.025000000000002 0 0 0 1049.675 520.5" fill="#214c8e"/><rect x="1075.7" y="485.8" width="34.7" height="34.7" fill="#fefeff"/><path d="M 1075.7 485.8 A 34.7 34.7 0 0 1 1110.4 520.5 L 1101.7250000000001 520.5 A 26.025000000000002 26.025000000000002 0 0 0 1075.7 494.475" fill="#eef4fc"/><rect x="1041" y="520.5" width="34.7" height="34.7" fill="#bfd4f4"/><path d="M 1041 520.5 A 34.7 34.7 0 0 0 1075.7 555.2 L 1075.7 546.525 A 26.025000000000002 26.025000000000002 0 0 1 1049.675 520.5" fill="#e0eaf9"/><rect x="1075.7" y="520.5" width="34.7" height="34.7" fill="#90b5ec"/><path d="M 1075.7 555.2 A 34.7 34.7 0 0 0 1110.4 520.5 L 1101.7250000000001 520.5 A 26.025000000000002 26.025000000000002 0 0 1 1075.7 546.525" fill="#f5f7fa"/><rect x="1110.4" y="485.80000000000007" width="69.4" height="69.4" fill="#ffffff"/><rect x="1110.4" y="485.8" width="34.7" height="34.7" fill="#ffffff"/><polygon points="1145.1000000000001,485.8 1145.1000000000001,520.5 1110.4,520.5" fill="#8cb2eb"/><rect x="1145.1" y="485.8" width="34.7" height="34.7" fill="#c1d6f4"/><polygon points="1145.1,485.8 1179.8,520.5 1145.1,520.5" fill="#b2cbf2"/><rect x="1110.4" y="520.5" width="34.7" height="34.7" fill="#e4edfa"/><polygon points="1110.4,520.5 1145.1000000000001,520.5 1110.4,555.2" fill="#aec9f1"/><rect x="1145.1" y="520.5" width="34.7" height="34.7" fill="#dfeafa"/><polygon points="1145.1,520.5 1179.8,520.5 1179.8,555.2" fill="#bdcade"/><rect x="0" y="555.2" width="69.4" height="69.4" fill="#ffffff"/><rect x="0" y="555.2" width="34.7" height="34.7" fill="#e8effb"/><polygon points="34.7,555.2 34.7,589.9000000000001 0,589.9000000000001" fill="#a8c5f0"/><rect x="34.7" y="555.2" width="34.7" height="34.7" fill="#b2ccf2"/><polygon points="34.7,555.2 69.4,589.9000000000001 34.7,589.9000000000001" fill="#7ca8e8"/><rect x="0" y="589.9" width="34.7" height="34.7" fill="#bdd3f4"/><polygon points="0,589.9 34.7,589.9 34.7,624.6" fill="#93b7ed"/><rect x="69.4" y="555.2" width="69.4" height="69.4" fill="#ffffff"/><rect x="69.4" y="555.2" width="34.7" height="34.7" fill="#dae6f8"/><path d="M 69.4 589.9000000000001 A 34.7 34.7 0 0 0 104.10000000000001 555.2 L 69.4 555.2" fill="#5e93e3"/><rect x="104.1" y="555.2" width="34.7" height="34.7" fill="#bbd2f3"/><path d="M 104.1 555.2 A 34.7 34.7 0 0 0 138.8 589.9000000000001 L 138.8 555.2" fill="#fefeff"/><rect x="104.1" y="589.9" width="34.7" height="34.7" fill="#eff5fc"/><path d="M 104.1 624.6 A 34.7 34.7 0 0 1  138.8 589.9 L 138.8 624.6" fill="#234d8f"/><rect x="138.8" y="555.2" width="69.4" height="69.4" fill="#ffffff"/><rect x="138.8" y="555.2" width="34.7" height="34.7" fill="#b0cbf2"/><polygon points="173.5,555.2 173.5,589.9000000000001 138.8,589.9000000000001" fill="#9bbdee"/><rect x="173.5" y="555.2" width="34.7" height="34.7" fill="#e3ecfa"/><polygon points="173.5,555.2 208.2,589.9000000000001 173.5,589.9000000000001" fill="#84adea"/><rect x="138.8" y="589.9" width="34.7" height="34.7" fill="#7ca8e9"/><polygon points="138.8,589.9 173.5,589.9 173.5,624.6" fill="#b1cbf2"/><rect x="173.5" y="589.9" width="34.7" height="34.7" fill="#9db0cd"/><polygon points="173.5,589.9 208.2,589.9 173.5,624.6" fill="#c5d8f5"/><rect x="208.20000000000002" y="555.2" width="69.4" height="69.4" fill="#ffffff"/><rect x="242.9" y="555.2" width="34.7" height="34.7" fill="#c2d6f5"/><path d="M 242.9 555.2 A 34.7 34.7 0 0 1 277.6 589.9000000000001 L 268.925 589.9000000000001 A 26.025000000000002 26.025000000000002 0 0 0 242.9 563.875" fill="#cedef7"/><rect x="208.2" y="589.9" width="34.7" height="34.7" fill="#ebf2fc"/><path d="M 208.2 589.9 A 34.7 34.7 0 0 0 242.89999999999998 624.6 L 242.89999999999998 615.925 A 26.025000000000002 26.025000000000002 0 0 1 216.875 589.9" fill="#cadcf6"/><rect x="242.9" y="589.9" width="34.7" height="34.7" fill="#f5f7fa"/><path d="M 242.9 624.6 A 34.7 34.7 0 0 0 277.6 589.9 L 268.925 589.9 A 26.025000000000002 26.025000000000002 0 0 1 242.9 615.925" fill="#e8f0fb"/><rect x="277.6" y="555.2" width="69.4" height="69.4" fill="#ffffff"/><rect x="277.6" y="555.2" width="34.7" height="34.7" fill="#4e89e1"/><circle cx="294.95000000000005" cy="572.5500000000001" r="17.35" fill="#bad1f3"/><rect x="312.3" y="555.2" width="34.7" height="34.7" fill="#275191"/><rect x="312.3" y="555.2" width="34.7" height="34.7" fill="#e1ebfa"/><rect x="277.6" y="589.9" width="34.7" height="34.7" fill="#6c9de6"/><circle cx="294.95000000000005" cy="607.25" r="17.35" fill="#c1d6f4"/><rect x="312.3" y="589.9" width="34.7" height="34.7" fill="#bad1f3"/><rect x="312.3" y="589.9" width="34.7" height="34.7" fill="#b9d0f3"/><rect x="347" y="555.2" width="69.4" height="69.4" fill="#ffffff"/><rect x="347" y="555.2" width="34.7" height="34.7" fill="#fdfeff"/><polygon points="381.7,555.2 381.7,589.9000000000001 347,589.9000000000001" fill="#c8daf6"/><rect x="381.7" y="555.2" width="34.7" height="34.7" fill="#8ab1eb"/><polygon points="381.7,555.2 416.4,555.2 381.7,589.9000000000001" fill="#cadcf6"/><rect x="347" y="589.9" width="34.7" height="34.7" fill="#b1cbf2"/><polygon points="347,589.9 381.7,589.9 381.7,624.6" fill="#fbfdfe"/><rect x="381.7" y="589.9" width="34.7" height="34.7" fill="#607fae"/><polygon points="381.7,589.9 416.4,624.6 381.7,624.6" fill="#9aadcb"/><rect x="416.40000000000003" y="555.2" width="69.4" height="69.4" fill="#ffffff"/><rect x="416.4" y="555.2" width="34.7" height="34.7" fill="#dee9f9"/><polygon points="451.09999999999997,555.2 451.09999999999997,589.9000000000001 416.4,589.9000000000001" fill="#f1f6fd"/><rect x="451.1" y="555.2" width="34.7" height="34.7" fill="#afcaf1"/><polygon points="451.1,555.2 485.8,555.2 451.1,589.9000000000001" fill="#dce8f9"/><rect x="416.4" y="589.9" width="34.7" height="34.7" fill="#4c88e0"/><polygon points="416.4,589.9 451.09999999999997,589.9 451.09999999999997,624.6" fill="#cedef6"/><rect x="451.1" y="589.9" width="34.7" height="34.7" fill="#a0c0ef"/><polygon points="451.1,589.9 485.8,624.6 451.1,624.6" fill="#7b95bc"/><rect x="485.80000000000007" y="555.2" width="69.4" height="69.4" fill="#ffffff"/><rect x="485.8" y="555.2" width="34.7" height="34.7" fill="#8ab1eb"/><path d="M 485.8 589.9000000000001 A 34.7 34.7 0 0 1 520.5 555.2 L 520.5 563.875 A 26.025000000000002 26.025000000000002 0 0 0 494.475 589.9000000000001" fill="#dfeaf9"/><rect x="520.5" y="555.2" width="34.7" height="34.7" fill="#bfd4f4"/><path d="M 520.5 555.2 A 34.7 34.7 0 0 1 555.2 589.9000000000001 L 546.525 589.9000000000001 A 26.025000000000002 26.025000000000002 0 0 0 520.5 563.875" fill="#f2f6fd"/><rect x="485.8" y="589.9" width="34.7" height="34.7" fill="#4f71a6"/><path d="M 485.8 589.9 A 34.7 34.7 0 0 0 520.5 624.6 L 520.5 615.925 A 26.025000000000002 26.025000000000002 0 0 1 494.475 589.9" fill="#e7effb"/><rect x="520.5" y="589.9" width="34.7" height="34.7" fill="#b8d0f3"/><path d="M 520.5 624.6 A 34.7 34.7 0 0 0 555.2 589.9 L 546.525 589.9 A 26.025000000000002 26.025000000000002 0 0 1 520.5 615.925" fill="#78a5e8"/><rect x="555.2" y="555.2" width="69.4" height="69.4" fill="#ffffff"/><rect x="555.2" y="555.2" width="34.7" height="34.7" fill="#e1ebfa"/><path d="M 555.2 589.9000000000001 A 34.7 34.7 0 0 1 589.9000000000001 555.2 L 589.9000000000001 563.875 A 26.025000000000002 26.025000000000002 0 0 0 563.875 589.9000000000001" fill="#6180af"/><rect x="589.9" y="555.2" width="34.7" height="34.7" fill="#eaf1fb"/><path d="M 589.9 555.2 A 34.7 34.7 0 0 1 624.6 589.9000000000001 L 615.925 589.9000000000001 A 26.025000000000002 26.025000000000002 0 0 0 589.9 563.875" fill="#95b8ed"/><rect x="555.2" y="589.9" width="34.7" height="34.7" fill="#cedef7"/><path d="M 555.2 589.9 A 34.7 34.7 0 0 0 589.9000000000001 624.6 L 589.9000000000001 615.925 A 26.025000000000002 26.025000000000002 0 0 1 563.875 589.9" fill="#eef4fc"/><rect x="589.9" y="589.9" width="34.7" height="34.7" fill="#b1cbf2"/><path d="M 589.9 624.6 A 34.7 34.7 0 0 0 624.6 589.9 L 615.925 589.9 A 26.025000000000002 26.025000000000002 0 0 1 589.9 615.925" fill="#c8daf5"/><rect x="624.6" y="555.2" width="69.4" height="69.4" fill="#ffffff"/><rect x="624.6" y="555.2" width="34.7" height="34.7" fill="#9bbcee"/><path d="M 624.6 555.2 A 34.7 34.7 0 0 0 659.3000000000001 589.9000000000001 L 659.3000000000001 555.2" fill="#e4edfa"/><rect x="659.3" y="555.2" width="34.7" height="34.7" fill="#ecf2fc"/><path d="M 659.3 589.9000000000001 A 34.7 34.7 0 0 0 694 555.2 L 659.3 555.2" fill="#6c88b4"/><rect x="624.6" y="589.9" width="34.7" height="34.7" fill="#e4edfa"/><path d="M 624.6 624.6 A 34.7 34.7 0 0 1  659.3000000000001 589.9 L 659.3000000000001 624.6" fill="#7da9e9"/><rect x="659.3" y="589.9" width="34.7" height="34.7" fill="#cedff7"/><path d="M 659.3 589.9 A 34.7 34.7 0 0 1 694 624.6 L 659.3 624.6" fill="#e8f0fb"/><rect x="694" y="555.2" width="69.4" height="69.4" fill="#ffffff"/><rect x="694" y="555.2" width="34.7" height="34.7" fill="#f7f9fe"/><circle cx="711.35" cy="572.5500000000001" r="17.35" fill="#edf3fc"/><rect x="728.7" y="555.2" width="34.7" height="34.7" fill="#e0eaf9"/><rect x="728.7" y="555.2" width="34.7" height="34.7" fill="#dde8f9"/><rect x="694" y="589.9" width="34.7" height="34.7" fill="#c3d7f5"/><circle cx="711.35" cy="607.25" r="17.35" fill="#fbfcfe"/><rect x="728.7" y="589.9" width="34.7" height="34.7" fill="#b1cbf2"/><rect x="728.7" y="589.9" width="34.7" height="34.7" fill="#fbfdfe"/><rect x="763.4000000000001" y="555.2" width="69.4" height="69.4" fill="#ffffff"/><rect x="763.4" y="555.2" width="34.7" height="34.7" fill="#cfdff7"/><polygon points="798.1,555.2 798.1,589.9000000000001 763.4,589.9000000000001" fill="#fefeff"/><rect x="798.1" y="555.2" width="34.7" height="34.7" fill="#dde8f9"/><polygon points="798.1,555.2 832.8000000000001,555.2 798.1,589.9000000000001" fill="#b9d1f3"/><rect x="763.4" y="589.9" width="34.7" height="34.7" fill="#fefeff"/><polygon points="763.4,589.9 798.1,589.9 798.1,624.6" fill="#d9e5f8"/><rect x="798.1" y="589.9" width="34.7" height="34.7" fill="#e5eaf2"/><polygon points="798.1,589.9 832.8000000000001,624.6 798.1,624.6" fill="#f5f8fd"/><rect x="832.8000000000001" y="555.2" width="69.4" height="69.4" fill="#ffffff"/><rect x="832.8" y="555.2" width="34.7" height="34.7" fill="#b8c6db"/><path d="M 832.8 589.9000000000001 A 34.7 34.7 0 0 1 867.5 555.2 L 867.5 563.875 A 26.025000000000002 26.025000000000002 0 0 0 841.4749999999999 589.9000000000001" fill="#2c5594"/><rect x="867.5" y="555.2" width="34.7" height="34.7" fill="#d1e0f7"/><path d="M 867.5 555.2 A 34.7 34.7 0 0 1 902.2 589.9000000000001 L 893.525 589.9000000000001 A 26.025000000000002 26.025000000000002 0 0 0 867.5 563.875" fill="#e3ecfa"/><rect x="832.8" y="589.9" width="34.7" height="34.7" fill="#dae7f9"/><path d="M 832.8 589.9 A 34.7 34.7 0 0 0 867.5 624.6 L 867.5 615.925 A 26.025000000000002 26.025000000000002 0 0 1 841.4749999999999 589.9" fill="#b9d1f3"/><rect x="867.5" y="589.9" width="34.7" height="34.7" fill="#f1f6fd"/><path d="M 867.5 624.6 A 34.7 34.7 0 0 0 902.2 589.9 L 893.525 589.9 A 26.025000000000002 26.025000000000002 0 0 1 867.5 615.925" fill="#e6eefb"/><rect x="902.2" y="555.2" width="69.4" height="69.4" fill="#ffffff"/><rect x="902.2" y="555.2" width="34.7" height="34.7" fill="#d5e3f8"/><path d="M 902.2 555.2 A 34.7 34.7 0 0 1 936.9000000000001 589.9000000000001 L 902.2 589.9000000000001" fill="#dfeaf9"/><rect x="936.9" y="555.2" width="34.7" height="34.7" fill="#91b6ec"/><path d="M 936.9 589.9000000000001 A 34.7 34.7 0 0 1  971.6 555.2 L 971.6 589.9000000000001" fill="#f6f9fd"/><rect x="902.2" y="589.9" width="34.7" height="34.7" fill="#c7daf6"/><path d="M 902.2 624.6 A 34.7 34.7 0 0 0 936.9000000000001 589.9 L 902.2 589.9" fill="#e7effb"/><rect x="936.9" y="589.9" width="34.7" height="34.7" fill="#578fe2"/><path d="M 936.9 589.9 A 34.7 34.7 0 0 0 971.6 624.6 L 971.6 589.9" fill="#a7c4f0"/><rect x="971.6000000000001" y="555.2" width="69.4" height="69.4" fill="#ffffff"/><rect x="971.6" y="555.2" width="34.7" height="34.7" fill="#d8e5f8"/><circle cx="988.95" cy="572.5500000000001" r="17.35" fill="#dce8f9"/><rect x="1006.3" y="555.2" width="34.7" height="34.7" fill="#e6eefb"/><rect x="1006.3" y="555.2" width="34.7" height="34.7" fill="#b9d1f3"/><rect x="971.6" y="589.9" width="34.7" height="34.7" fill="#b1cbf2"/><circle cx="988.95" cy="607.25" r="17.35" fill="#c1d6f4"/><rect x="1006.3" y="589.9" width="34.7" height="34.7" fill="#fcfdff"/><rect x="1006.3" y="589.9" width="34.7" height="34.7" fill="#dae6f8"/><rect x="1041" y="555.2" width="69.4" height="69.4" fill="#ffffff"/><rect x="1041" y="555.2" width="34.7" height="34.7" fill="#5576a8"/><path d="M 1041 555.2 A 34.7 34.7 0 0 1 1075.7 589.9000000000001 L 1041 589.9000000000001" fill="#f8f9fb"/><rect x="1075.7" y="555.2" width="34.7" height="34.7" fill="#96b9ed"/><path d="M 1075.7 589.9000000000001 A 34.7 34.7 0 0 1  1110.4 555.2 L 1110.4 589.9000000000001" fill="#e8effb"/><rect x="1041" y="589.9" width="34.7" height="34.7" fill="#eaf1fb"/><path d="M 1041 624.6 A 34.7 34.7 0 0 0 1075.7 589.9 L 1041 589.9" fill="#97b9ed"/><rect x="1075.7" y="589.9" width="34.7" height="34.7" fill="#9ebeee"/><path d="M 1075.7 589.9 A 34.7 34.7 0 0 0 1110.4 624.6 L 1110.4 589.9" fill="#eef4fc"/><rect x="1110.4" y="555.2" width="69.4" height="69.4" fill="#ffffff"/><rect x="1110.4" y="555.2" width="34.7" height="34.7" fill="#d3e2f8"/><polygon points="1145.1000000000001,555.2 1145.1000000000001,589.9000000000001 1110.4,589.9000000000001" fill="#e1ebfa"/><rect x="1145.1" y="555.2" width="34.7" height="34.7" fill="#7690b9"/><polygon points="1145.1,555.2 1179.8,589.9000000000001 1145.1,589.9000000000001" fill="#b2ccf2"/><rect x="1110.4" y="589.9" width="34.7" height="34.7" fill="#cfdff7"/><polygon points="1110.4,589.9 1145.1000000000001,589.9 1145.1000000000001,624.6" fill="#f4f8fd"/><rect x="1145.1" y="589.9" width="34.7" height="34.7" fill="#b7cff3"/><polygon points="1145.1,589.9 1179.8,589.9 1145.1,624.6" fill="#a8c5f0"/><rect x="0" y="624.6" width="69.4" height="69.4" fill="#ffffff"/><rect x="0" y="624.6" width="34.7" height="34.7" fill="#f3f5f9"/><path d="M 0 659.3000000000001 A 34.7 34.7 0 0 1  34.7 624.6 L 34.7 659.3000000000001" fill="#d9e6f8"/><rect x="34.7" y="624.6" width="34.7" height="34.7" fill="#82acea"/><path d="M 34.7 624.6 A 34.7 34.7 0 0 1 69.4 659.3000000000001 L 34.7 659.3000000000001" fill="#bed4f4"/><rect x="0" y="659.3" width="34.7" height="34.7" fill="#5b92e3"/><path d="M 0 659.3 A 34.7 34.7 0 0 0 34.7 694 L 34.7 659.3" fill="#7993bb"/><rect x="34.7" y="659.3" width="34.7" height="34.7" fill="#9aadcb"/><path d="M 34.7 694 A 34.7 34.7 0 0 0 69.4 659.3 L 34.7 659.3" fill="#e3ecfa"/><rect x="69.4" y="624.6" width="69.4" height="69.4" fill="#ffffff"/><rect x="69.4" y="624.6" width="34.7" height="34.7" fill="#fafcfe"/><path d="M 69.4 659.3000000000001 A 34.7 34.7 0 0 1 104.10000000000001 624.6 L 104.10000000000001 633.275 A 26.025000000000002 26.025000000000002 0 0 0 78.075 659.3000000000001" fill="#3a609b"/><rect x="104.1" y="624.6" width="34.7" height="34.7" fill="#bbd2f3"/><path d="M 104.1 624.6 A 34.7 34.7 0 0 1 138.8 659.3000000000001 L 130.125 659.3000000000001 A 26.025000000000002 26.025000000000002 0 0 0 104.1 633.275" fill="#e3edfa"/><rect x="69.4" y="659.3" width="34.7" height="34.7" fill="#e4edfa"/><path d="M 69.4 659.3 A 34.7 34.7 0 0 0 104.10000000000001 694 L 104.10000000000001 685.3249999999999 A 26.025000000000002 26.025000000000002 0 0 1 78.075 659.3" fill="#ebf2fc"/><rect x="104.1" y="659.3" width="34.7" height="34.7" fill="#f0f3f7"/><path d="M 104.1 694 A 34.7 34.7 0 0 0 138.8 659.3 L 130.125 659.3 A 26.025000000000002 26.025000000000002 0 0 1 104.1 685.3249999999999" fill="#b2ccf2"/><rect x="138.8" y="624.6" width="69.4" height="69.4" fill="#ffffff"/><rect x="138.8" y="624.6" width="34.7" height="34.7" fill="#f9fbfe"/><polygon points="173.5,624.6 173.5,659.3000000000001 138.8,659.3000000000001" fill="#bfd4f4"/><rect x="173.5" y="624.6" width="34.7" height="34.7" fill="#f1f6fd"/><polygon points="173.5,624.6 208.2,659.3000000000001 173.5,659.3000000000001" fill="#9abcee"/><rect x="138.8" y="659.3" width="34.7" height="34.7" fill="#afcaf1"/><polygon points="138.8,659.3 173.5,659.3 138.8,694" fill="#fdfeff"/><rect x="173.5" y="659.3" width="34.7" height="34.7" fill="#cedff7"/><polygon points="173.5,659.3 208.2,659.3 208.2,694" fill="#a3b5d0"/><rect x="208.20000000000002" y="624.6" width="69.4" height="69.4" fill="#ffffff"/><rect x="208.2" y="624.6" width="34.7" height="34.7" fill="#dce3ed"/><polygon points="242.89999999999998,624.6 242.89999999999998,659.3000000000001 208.2,659.3000000000001" fill="#7faae9"/><rect x="242.9" y="624.6" width="34.7" height="34.7" fill="#184489"/><polygon points="242.9,624.6 277.6,624.6 242.9,659.3000000000001" fill="#f6f9fd"/><rect x="208.2" y="659.3" width="34.7" height="34.7" fill="#bad1f3"/><polygon points="208.2,659.3 242.89999999999998,659.3 242.89999999999998,694" fill="#ccddf6"/><rect x="242.9" y="659.3" width="34.7" height="34.7" fill="#f6f9fd"/><polygon points="242.9,659.3 277.6,694 242.9,694" fill="#d4e2f8"/><rect x="277.6" y="624.6" width="69.4" height="69.4" fill="#ffffff"/><rect x="277.6" y="624.6" width="34.7" height="34.7" fill="#e9f0fb"/><polygon points="312.3,624.6 312.3,659.3000000000001 277.6,659.3000000000001" fill="#a9c5f0"/><rect x="312.3" y="624.6" width="34.7" height="34.7" fill="#cbdcf6"/><polygon points="312.3,624.6 347,659.3000000000001 312.3,659.3000000000001" fill="#fdfeff"/><rect x="277.6" y="659.3" width="34.7" height="34.7" fill="#b7cff3"/><polygon points="277.6,659.3 312.3,659.3 277.6,694" fill="#bdd3f4"/><rect x="312.3" y="659.3" width="34.7" height="34.7" fill="#7faae9"/><polygon points="312.3,659.3 347,659.3 347,694" fill="#f0f5fc"/><rect x="347" y="624.6" width="69.4" height="69.4" fill="#ffffff"/><rect x="347" y="624.6" width="34.7" height="34.7" fill="#81abe9"/><path d="M 347 624.6 A 34.7 34.7 0 0 0 381.7 659.3000000000001 L 381.7 624.6" fill="#71a0e7"/><rect x="381.7" y="624.6" width="34.7" height="34.7" fill="#f7fafe"/><path d="M 381.7 659.3000000000001 A 34.7 34.7 0 0 0 416.4 624.6 L 381.7 624.6" fill="#b8cff3"/><rect x="347" y="659.3" width="34.7" height="34.7" fill="#e8ecf3"/><path d="M 347 694 A 34.7 34.7 0 0 1  381.7 659.3 L 381.7 694" fill="#dbe7f9"/><rect x="381.7" y="659.3" width="34.7" height="34.7" fill="#e7ebf3"/><path d="M 381.7 659.3 A 34.7 34.7 0 0 1 416.4 694 L 381.7 694" fill="#eaf1fb"/><rect x="416.40000000000003" y="624.6" width="69.4" height="69.4" fill="#ffffff"/><rect x="416.4" y="624.6" width="34.7" height="34.7" fill="#7d96bd"/><polygon points="451.09999999999997,624.6 451.09999999999997,659.3000000000001 416.4,659.3000000000001" fill="#e0eaf9"/><rect x="451.1" y="624.6" width="34.7" height="34.7" fill="#b6cef3"/><polygon points="451.1,624.6 485.8,659.3000000000001 451.1,659.3000000000001" fill="#829abf"/><rect x="416.4" y="659.3" width="34.7" height="34.7" fill="#5979ab"/><polygon points="416.4,659.3 451.09999999999997,659.3 416.4,694" fill="#94b8ed"/><rect x="451.1" y="659.3" width="34.7" height="34.7" fill="#fcfdff"/><polygon points="451.1,659.3 485.8,659.3 485.8,694" fill="#a4c2f0"/><rect x="485.80000000000007" y="624.6" width="69.4" height="69.4" fill="#ffffff"/><rect x="485.8" y="624.6" width="34.7" height="34.7" fill="#6b9ce6"/><path d="M 485.8 659.3000000000001 A 34.7 34.7 0 0 1 520.5 624.6 L 520.5 633.275 A 26.025000000000002 26.025000000000002 0 0 0 494.475 659.3000000000001" fill="#f6f9fd"/><rect x="520.5" y="624.6" width="34.7" height="34.7" fill="#a3b5d0"/><path d="M 520.5 624.6 A 34.7 34.7 0 0 1 555.2 659.3000000000001 L 546.525 659.3000000000001 A 26.025000000000002 26.025000000000002 0 0 0 520.5 633.275" fill="#dae6f8"/><rect x="485.8" y="659.3" width="34.7" height="34.7" fill="#b9d0f3"/><path d="M 485.8 659.3 A 34.7 34.7 0 0 0 520.5 694 L 520.5 685.3249999999999 A 26.025000000000002 26.025000000000002 0 0 1 494.475 659.3" fill="#acc8f1"/><rect x="520.5" y="659.3" width="34.7" height="34.7" fill="#f5f7fa"/><path d="M 520.5 694 A 34.7 34.7 0 0 0 555.2 659.3 L 546.525 659.3 A 26.025000000000002 26.025000000000002 0 0 1 520.5 685.3249999999999" fill="#c8daf5"/><rect x="555.2" y="624.6" width="69.4" height="69.4" fill="#ffffff"/><rect x="555.2" y="624.6" width="34.7" height="34.7" fill="#8eb3ec"/><polygon points="589.9000000000001,624.6 589.9000000000001,659.3000000000001 555.2,659.3000000000001" fill="#486ba2"/><rect x="589.9" y="624.6" width="34.7" height="34.7" fill="#bbd2f3"/><polygon points="589.9,624.6 624.6,659.3000000000001 589.9,659.3000000000001" fill="#f1f6fd"/><rect x="555.2" y="659.3" width="34.7" height="34.7" fill="#41669f"/><polygon points="555.2,659.3 589.9000000000001,659.3 589.9000000000001,694" fill="#b9d0f3"/><rect x="589.9" y="659.3" width="34.7" height="34.7" fill="#174489"/><polygon points="589.9,659.3 624.6,659.3 589.9,694" fill="#a4c2ef"/><rect x="624.6" y="624.6" width="69.4" height="69.4" fill="#ffffff"/><rect x="624.6" y="624.6" width="34.7" height="34.7" fill="#e7effb"/><circle cx="641.95" cy="641.95" r="17.35" fill="#bcd2f4"/><rect x="659.3" y="624.6" width="34.7" height="34.7" fill="#6785b2"/><rect x="659.3" y="624.6" width="34.7" height="34.7" fill="#abc7f1"/><rect x="624.6" y="659.3" width="34.7" height="34.7" fill="#fdfeff"/><circle cx="641.95" cy="676.65" r="17.35" fill="#dce7f9"/><rect x="659.3" y="659.3" width="34.7" height="34.7" fill="#dfe9f9"/><rect x="659.3" y="659.3" width="34.7" height="34.7" fill="#dde8f9"/><rect x="694" y="624.6" width="69.4" height="69.4" fill="#ffffff"/><rect x="694" y="624.6" width="34.7" height="34.7" fill="#dce3ed"/><path d="M 694 659.3000000000001 A 34.7 34.7 0 0 1  728.7 624.6 L 728.7 659.3000000000001" fill="#bad1f3"/><rect x="728.7" y="624.6" width="34.7" height="34.7" fill="#71a0e7"/><path d="M 728.7 624.6 A 34.7 34.7 0 0 1 763.4000000000001 659.3000000000001 L 728.7 659.3000000000001" fill="#6095e4"/><rect x="694" y="659.3" width="34.7" height="34.7" fill="#b9d0f3"/><path d="M 694 659.3 A 34.7 34.7 0 0 0 728.7 694 L 728.7 659.3" fill="#cfdff7"/><rect x="728.7" y="659.3" width="34.7" height="34.7" fill="#eaf1fb"/><path d="M 728.7 694 A 34.7 34.7 0 0 0 763.4000000000001 659.3 L 728.7 659.3" fill="#d1e0f7"/><rect x="763.4000000000001" y="624.6" width="69.4" height="69.4" fill="#ffffff"/><rect x="763.4" y="624.6" width="34.7" height="34.7" fill="#ecf2fc"/><path d="M 763.4 659.3000000000001 A 34.7 34.7 0 0 0 798.1 624.6 L 763.4 624.6" fill="#ecf0f6"/><rect x="798.1" y="624.6" width="34.7" height="34.7" fill="#7aa6e8"/><path d="M 798.1 624.6 A 34.7 34.7 0 0 0 832.8000000000001 659.3000000000001 L 832.8000000000001 624.6" fill="#afc9f1"/><rect x="763.4" y="659.3" width="34.7" height="34.7" fill="#d2e1f7"/><path d="M 763.4 659.3 A 34.7 34.7 0 0 1 798.1 694 L 763.4 694" fill="#d2e1f7"/><rect x="798.1" y="659.3" width="34.7" height="34.7" fill="#c1d6f4"/><path d="M 798.1 694 A 34.7 34.7 0 0 1  832.8000000000001 659.3 L 832.8000000000001 694" fill="#b0caf2"/><rect x="832.8000000000001" y="624.6" width="69.4" height="69.4" fill="#ffffff"/><rect x="832.8" y="624.6" width="34.7" height="34.7" fill="#99bbee"/><polygon points="867.5,624.6 867.5,659.3000000000001 832.8,659.3000000000001" fill="#c6d9f5"/><rect x="867.5" y="624.6" width="34.7" height="34.7" fill="#bfcbde"/><polygon points="867.5,624.6 902.2,624.6 867.5,659.3000000000001" fill="#e7effb"/><rect x="832.8" y="659.3" width="34.7" height="34.7" fill="#f7fafe"/><polygon points="832.8,659.3 867.5,659.3 867.5,694" fill="#c8daf6"/><rect x="867.5" y="659.3" width="34.7" height="34.7" fill="#f2f6fd"/><polygon points="867.5,659.3 902.2,694 867.5,694" fill="#7ca8e9"/><rect x="902.2" y="624.6" width="69.4" height="69.4" fill="#ffffff"/><rect x="902.2" y="624.6" width="34.7" height="34.7" fill="#5576a8"/><polygon points="936.9000000000001,624.6 936.9000000000001,659.3000000000001 902.2,659.3000000000001" fill="#7791ba"/><rect x="936.9" y="624.6" width="34.7" height="34.7" fill="#b4cdf2"/><polygon points="936.9,624.6 971.6,659.3000000000001 936.9,659.3000000000001" fill="#7ba7e8"/><rect x="902.2" y="659.3" width="34.7" height="34.7" fill="#d9e6f9"/><polygon points="902.2,659.3 936.9000000000001,659.3 936.9000000000001,694" fill="#d2dbe8"/><rect x="936.9" y="659.3" width="34.7" height="34.7" fill="#81abe9"/><polygon points="936.9,659.3 971.6,659.3 936.9,694" fill="#d4dce9"/><rect x="971.6000000000001" y="624.6" width="69.4" height="69.4" fill="#ffffff"/><rect x="971.6" y="624.6" width="34.7" height="34.7" fill="#dae6f9"/><path d="M 971.6 659.3000000000001 A 34.7 34.7 0 0 1 1006.3000000000001 624.6 L 1006.3000000000001 633.275 A 26.025000000000002 26.025000000000002 0 0 0 980.275 659.3000000000001" fill="#b2ccf2"/><rect x="1006.3" y="624.6" width="34.7" height="34.7" fill="#82acea"/><path d="M 1006.3 624.6 A 34.7 34.7 0 0 1 1041 659.3000000000001 L 1032.325 659.3000000000001 A 26.025000000000002 26.025000000000002 0 0 0 1006.3 633.275" fill="#d7e4f8"/><rect x="971.6" y="659.3" width="34.7" height="34.7" fill="#f1f6fc"/><path d="M 971.6 659.3 A 34.7 34.7 0 0 0 1006.3000000000001 694 L 1006.3000000000001 685.3249999999999 A 26.025000000000002 26.025000000000002 0 0 1 980.275 659.3" fill="#aac6f0"/><rect x="1006.3" y="659.3" width="34.7" height="34.7" fill="#f4f7fd"/><path d="M 1006.3 694 A 34.7 34.7 0 0 0 1041 659.3 L 1032.325 659.3 A 26.025000000000002 26.025000000000002 0 0 1 1006.3 685.3249999999999" fill="#fcfdfe"/><rect x="1041" y="624.6" width="69.4" height="69.4" fill="#ffffff"/><rect x="1041" y="624.6" width="34.7" height="34.7" fill="#becbde"/><path d="M 1041 659.3000000000001 A 34.7 34.7 0 0 0 1075.7 624.6 L 1041 624.6" fill="#e8effb"/><rect x="1075.7" y="624.6" width="34.7" height="34.7" fill="#d9e5f8"/><path d="M 1075.7 624.6 A 34.7 34.7 0 0 0 1110.4 659.3000000000001 L 1110.4 624.6" fill="#f1f5fd"/><rect x="1041" y="659.3" width="34.7" height="34.7" fill="#afcaf1"/><path d="M 1041 659.3 A 34.7 34.7 0 0 1 1075.7 694 L 1041 694" fill="#3a609b"/><rect x="1075.7" y="659.3" width="34.7" height="34.7" fill="#7b95bc"/><path d="M 1075.7 694 A 34.7 34.7 0 0 1  1110.4 659.3 L 1110.4 694" fill="#234d8f"/><rect x="1110.4" y="624.6" width="69.4" height="69.4" fill="#ffffff"/><rect x="1110.4" y="624.6" width="34.7" height="34.7" fill="#f4f7fd"/><path d="M 1110.4 659.3000000000001 A 34.7 34.7 0 0 0 1145.1000000000001 624.6 L 1110.4 624.6" fill="#abbbd4"/><rect x="1145.1" y="624.6" width="34.7" height="34.7" fill="#f1f6fd"/><path d="M 1145.1 624.6 A 34.7 34.7 0 0 0 1179.8 659.3000000000001 L 1179.8 624.6" fill="#7c95bc"/><rect x="1110.4" y="659.3" width="34.7" height="34.7" fill="#98acca"/><path d="M 1110.4 659.3 A 34.7 34.7 0 0 1 1145.1000000000001 694 L 1110.4 694" fill="#d2e1f7"/><rect x="1145.1" y="659.3" width="34.7" height="34.7" fill="#7ba7e8"/><path d="M 1145.1 694 A 34.7 34.7 0 0 1  1179.8 659.3 L 1179.8 694" fill="#bad1f3"/></g></svg>